{"title":"Horror.2015.WEBRiP.XViD.AC3.5.1.ReLeNTLesS","uid":12802921,"size":1426647655,"categoryP":"video","categoryS":"movies","magnet":"?xt=urn:btih:63c57d35439f2c2bb3af84655c2a67335d9b40cf&amp;dn=Horror.2015.WEBRiP.XViD.AC3.5.1.ReLeNTLesS&amp;tr=udp%3A%2F%2Ftracker.leechers-paradise.org%3A6969&amp;tr=udp%3A%2F%2Fzer0day.ch%3A1337&amp;tr=udp%3A%2F%2Fopen.demonii.com%3A1337&amp;tr=udp%3A%2F%2Ftracker.coppersurfer.tk%3A6969&amp;tr=udp%3A%2F%2Fexodus.desync.com%3A6969","seeders":0,"leechers":1,"uploader":"TvTeam","files":4,"time":1448076694,"description":"------------------------------------------------------------------------\r\n\r  https://www.torrenting.com\r\n\r\nSign up is OPEN - for time being. Come and have fun.\r\n\r\n------------------------------------------------------------------------P0STER\r\n[img]http://i.imgur.com/Yv3MjF9.png[/img]\r\n\r\niMDB: http://www.imdb.com/title/tt3526286/\r\n\r\nGeneral\r\nComplete name               : #Horror.2015.WEBRiP.XViD.AC3.5.1.ReLeNTLesS.avi\r\nFormat                      : AVI\r\nFormat/Info                 : Audio Video Interleave\r\nFile size                   : 1.31 GiB\r\nDuration                    : 1h 37mn\r\nOverall bit rate            : 1 915 Kbps\r\n\r\nVideo\r\nID                          : 0\r\nFormat                      : MPEG-4 Visual\r\nFormat profile              : Advanced   \r\nFormat settings, BVOP       : 1\r\nFormat settings, QPel       : No\r\nFormat settings, GMC        : No warppoints\r\nFormat settings, Matrix     : Default (H.263)\r\nMuxing mode                 : Packed bitstream\r\nCodec ID                    : XVID\r\nCodec ID/Hint               : XviD\r\nDuration                    : 1h 37mn\r\nBit rate                    : 1 715 Kbps\r\nWidth                       : 720 pixels\r\nHeight                      : 304 pixels\r\nDisplay aspect ratio        : 2.35:1\r\nFrame rate                  : 23.976 fps\r\nColor space                 : YUV\r\nChroma subsampling          : 4:2:0\r\nBit depth                   : 8 bits\r\nScan type                   : Progressive\r\nCompression mode            : Lossy\r\nBits/(Pixel*Frame)          : 0.327\r\nStream size                 : 1.17 GiB (90%)\r\nWriting library             : XviD 1.2.1 (UTC 2008-12-04)\r\n\r\nAudio\r\nID                          : 1\r\nFormat                      : AC-3\r\nFormat/Info                 : Audio Coding 3\r\nMode extension              : CM (complete main)\r\nFormat settings, Endianness : Big\r\nCodec ID                    : 2000\r\nDuration                    : 1h 37mn\r\nBit rate mode               : Constant\r\nBit rate                    : 192 Kbps\r\nChannel(s)                  : 6 channels\r\nChannel positions           : Front: L C R, Side: L R, LFE\r\nSampling rate               : 48.0 KHz\r\nCompression mode            : Lossy\r\nStream size                 : 134 MiB (10%)\r\nAlignment                   : Aligned on interleaves\r\nInterleave, duration        : 64 ms (1.53 video frames)\r\nInterleave, preload duratio : 192 ms\r\nTitle                       : #Horror.2015.ReLeNTLesS.audio.5.1.English_new\r\nSample Included             : Yes\r\nSource                      : PLAYNOW Thanks \r\n\r\nPL0T\r\nInspired by actual events, a group of 12 year old girls face a night of horror when the compulsive addiction of an online social media game turns a moment of cyber bullying into a night of insanity.\r\n\r\nCAST\r\nDirector: Tara Subkoff\r\nWriter: Tara Subkoff\r\nStars: Sadie Seelert, Haley Murphy, Bridget McGarry \r\n\r\nSCREENS\r\n[img]http://i.imgur.com/0kQkYcx.png[/img]\r\n[img]http://i.imgur.com/S9KKBk0.png[/img] \r\n[img]http://i.imgur.com/ubxrQmk.png[/img]\r\n[img]http://i.imgur.com/yK1G4uS.png[/img]\r\n[img]http://i.imgur.com/VSEmVrn.png[/img]\r\n[img]http://i.imgur.com/21krR3h.png[/img]\r\n\r\nTRAiLER\r\n\r\nGREETZ\r\n\r\nHIVE-CM8, Blackjesus, M0RPH, M00SE, MiLLENiUM,\r\n\r\nMANiX, TiTAN, Anonymous, TuX, \r\n\r\nACAB, KingStoner, FooKas, 4PlayHD, \r\n\r\nSoZE, GodFather, Cld","torrent":{"xt":"urn:btih:63c57d35439f2c2bb3af84655c2a67335d9b40cf","amp;dn":"Horror.2015.WEBRiP.XViD.AC3.5.1.ReLeNTLesS","amp;tr":["udp%3A%2F%2Ftracker.leechers-paradise.org%3A6969","udp%3A%2F%2Fzer0day.ch%3A1337","udp%3A%2F%2Fopen.demonii.com%3A1337","udp%3A%2F%2Ftracker.coppersurfer.tk%3A6969","udp%3A%2F%2Fexodus.desync.com%3A6969"],"infoHash":"63c57d35439f2c2bb3af84655c2a67335d9b40cf","infoHashBuffer":{"type":"Buffer","data":[99,197,125,53,67,159,44,43,179,175,132,101,92,42,103,51,93,155,64,207]},"announce":[],"urlList":[]}}